<?xml version="1.0" encoding="utf-8"?>
<!-- Generator: Adobe Illustrator 22.1.0, SVG Export Plug-In . SVG Version: 6.00 Build 0)  -->
<svg version="1.1" id="Layer_1" xmlns="http://www.w3.org/2000/svg" xmlns:xlink="http://www.w3.org/1999/xlink" x="0px" y="0px"
	 viewBox="0 0 581.959 93.487" style="enable-background:new 0 0 581.959 93.487;" xml:space="preserve">
<style type="text/css">
	.st0{fill:url(#SVGID_1_);}
	.st1{fill:url(#SVGID_2_);}
	.st2{fill:url(#SVGID_3_);}
	.st3{fill:url(#SVGID_4_);}
	.st4{fill:url(#SVGID_5_);}
	.st5{fill:url(#SVGID_6_);}
	.st6{fill:url(#SVGID_7_);}
	.st7{fill:url(#SVGID_8_);}
	.st8{fill:url(#SVGID_9_);}
	.st9{fill:url(#SVGID_10_);}
	.st10{fill:url(#SVGID_11_);}
	.st11{fill:url(#SVGID_12_);}
	.st12{fill:url(#SVGID_13_);}
</style>
<g>
	<g>
		<g>
			<linearGradient id="SVGID_1_" gradientUnits="userSpaceOnUse" x1="-19.8384" y1="66.1252" x2="49.598" y2="5.9834">
				<stop  offset="0" style="stop-color:#85E97E"/>
				<stop  offset="0.3892" style="stop-color:#00C1CA"/>
				<stop  offset="0.4664" style="stop-color:#00ADBF"/>
				<stop  offset="0.5996" style="stop-color:#0091B0"/>
				<stop  offset="0.7334" style="stop-color:#007DA6"/>
				<stop  offset="0.8669" style="stop-color:#00719F"/>
				<stop  offset="1" style="stop-color:#006D9D"/>
			</linearGradient>
			<path class="st0" d="M8.074,34.5L38.442,7.313v10.923c0,4.617-2.163,6.731-2.215,6.783L5.944,52.126V41.115
				C5.973,37.043,7.673,34.939,8.074,34.5z"/>
		</g>
		<g>
			<linearGradient id="SVGID_2_" gradientUnits="userSpaceOnUse" x1="3.8491" y1="48.8018" x2="80.9415" y2="111.6786">
				<stop  offset="0" style="stop-color:#85E97E"/>
				<stop  offset="0.3892" style="stop-color:#00C1CA"/>
				<stop  offset="0.4664" style="stop-color:#00ADBF"/>
				<stop  offset="0.5996" style="stop-color:#0091B0"/>
				<stop  offset="0.7334" style="stop-color:#007DA6"/>
				<stop  offset="0.8669" style="stop-color:#00719F"/>
				<stop  offset="1" style="stop-color:#006D9D"/>
			</linearGradient>
			<path class="st1" d="M36.309,68.541L5.942,41.353v10.921c0,4.618,2.159,6.734,2.214,6.785l30.284,27.11l0.003-11.016
				C38.417,71.083,36.71,68.976,36.309,68.541z"/>
		</g>
		<g>
			<linearGradient id="SVGID_3_" gradientUnits="userSpaceOnUse" x1="-8.1174" y1="118.7002" x2="104.5113" y2="28.4879">
				<stop  offset="0" style="stop-color:#85E97E"/>
				<stop  offset="0.5508" style="stop-color:#00C1CA"/>
				<stop  offset="0.6076" style="stop-color:#00ADBF"/>
				<stop  offset="0.7055" style="stop-color:#0091B0"/>
				<stop  offset="0.8039" style="stop-color:#007DA6"/>
				<stop  offset="0.9021" style="stop-color:#00719F"/>
				<stop  offset="1" style="stop-color:#006D9D"/>
			</linearGradient>
			<path class="st2" d="M74.586,58.986L44.221,86.174l-0.001-10.923c0-4.62,2.162-6.736,2.212-6.783l30.282-27.11v11.013
				C76.688,56.441,74.987,58.548,74.586,58.986z"/>
		</g>
		<g>
			
				<linearGradient id="SVGID_4_" gradientUnits="userSpaceOnUse" x1="572.7051" y1="-6302.8857" x2="518.0276" y2="-6454.3428" gradientTransform="matrix(-1 0 0 -1 631.1393 -6278.7949)">
				<stop  offset="0" style="stop-color:#85E97E"/>
				<stop  offset="0.3892" style="stop-color:#00C1CA"/>
				<stop  offset="0.4664" style="stop-color:#00ADBF"/>
				<stop  offset="0.5996" style="stop-color:#0091B0"/>
				<stop  offset="0.7334" style="stop-color:#007DA6"/>
				<stop  offset="0.8669" style="stop-color:#00719F"/>
				<stop  offset="1" style="stop-color:#006D9D"/>
			</linearGradient>
			<path class="st3" d="M46.352,24.946l30.365,27.188V41.21c0-4.618-2.161-6.735-2.214-6.784L44.221,7.316v11.015
				C44.245,22.402,45.951,24.508,46.352,24.946z"/>
		</g>
	</g>
	<g>
		<g>
			<linearGradient id="SVGID_5_" gradientUnits="userSpaceOnUse" x1="99.0605" y1="46.7407" x2="575.872" y2="46.7407">
				<stop  offset="0" style="stop-color:#85E97E"/>
				<stop  offset="0.3892" style="stop-color:#00C1CA"/>
				<stop  offset="0.4664" style="stop-color:#00ADBF"/>
				<stop  offset="0.5996" style="stop-color:#0091B0"/>
				<stop  offset="0.7334" style="stop-color:#007DA6"/>
				<stop  offset="0.8669" style="stop-color:#00719F"/>
				<stop  offset="1" style="stop-color:#006D9D"/>
			</linearGradient>
			<path class="st4" d="M179.136,69.1h-7.85c-10.162,0-18.43-8.272-18.43-18.434v-7.854c0-10.159,8.269-18.431,18.43-18.431h7.85
				c10.162,0,18.431,8.271,18.431,18.431v7.854C197.566,60.829,189.298,69.1,179.136,69.1z M171.286,29.909
				c-7.113,0-12.905,5.788-12.905,12.903v7.854c0,7.115,5.792,12.9,12.905,12.9h7.85c7.117,0,12.903-5.785,12.903-12.9v-7.854
				c0-7.115-5.787-12.903-12.903-12.903H171.286z"/>
		</g>
		<g>
			<linearGradient id="SVGID_6_" gradientUnits="userSpaceOnUse" x1="99.0597" y1="46.7407" x2="575.8788" y2="46.7407">
				<stop  offset="0" style="stop-color:#85E97E"/>
				<stop  offset="0.3892" style="stop-color:#00C1CA"/>
				<stop  offset="0.4664" style="stop-color:#00ADBF"/>
				<stop  offset="0.5996" style="stop-color:#0091B0"/>
				<stop  offset="0.7334" style="stop-color:#007DA6"/>
				<stop  offset="0.8669" style="stop-color:#00719F"/>
				<stop  offset="1" style="stop-color:#006D9D"/>
			</linearGradient>
			<path class="st5" d="M141.462,69.1h-23.52c-10.165,0-18.434-8.272-18.434-18.434v-7.854c0-10.159,8.269-18.431,18.434-18.431
				h23.52v5.527h-23.52c-7.115,0-12.903,5.788-12.903,12.903v7.854c0,7.115,5.788,12.9,12.903,12.9h23.52V69.1z"/>
		</g>
		<g>
			<linearGradient id="SVGID_7_" gradientUnits="userSpaceOnUse" x1="99.0628" y1="46.7407" x2="575.8712" y2="46.7407">
				<stop  offset="0" style="stop-color:#85E97E"/>
				<stop  offset="0.3892" style="stop-color:#00C1CA"/>
				<stop  offset="0.4664" style="stop-color:#00ADBF"/>
				<stop  offset="0.5996" style="stop-color:#0091B0"/>
				<stop  offset="0.7334" style="stop-color:#007DA6"/>
				<stop  offset="0.8669" style="stop-color:#00719F"/>
				<stop  offset="1" style="stop-color:#006D9D"/>
			</linearGradient>
			<path class="st6" d="M519.914,69.1h-23.523c-10.159,0-18.431-8.272-18.431-18.434v-7.854c0-10.159,8.271-18.431,18.431-18.431
				h23.523v5.527h-23.523c-7.112,0-12.905,5.788-12.905,12.903v7.854c0,7.115,5.793,12.9,12.905,12.9h23.523V69.1z"/>
		</g>
		<g>
			<linearGradient id="SVGID_8_" gradientUnits="userSpaceOnUse" x1="99.0662" y1="46.7407" x2="575.8694" y2="46.7407">
				<stop  offset="0" style="stop-color:#85E97E"/>
				<stop  offset="0.3892" style="stop-color:#00C1CA"/>
				<stop  offset="0.4664" style="stop-color:#00ADBF"/>
				<stop  offset="0.5996" style="stop-color:#0091B0"/>
				<stop  offset="0.7334" style="stop-color:#007DA6"/>
				<stop  offset="0.8669" style="stop-color:#00719F"/>
				<stop  offset="1" style="stop-color:#006D9D"/>
			</linearGradient>
			<path class="st7" d="M466.57,69.1h-5.525V42.812c0-7.115-5.79-12.903-12.905-12.903h-7.854c-7.114,0-12.901,5.788-12.901,12.903
				V69.1h-5.525V42.812c0-10.159,8.268-18.431,18.427-18.431h7.854c10.162,0,18.431,8.271,18.431,18.431V69.1z"/>
		</g>
		<g>
			<linearGradient id="SVGID_9_" gradientUnits="userSpaceOnUse" x1="99.0596" y1="40.8086" x2="575.8724" y2="40.8086">
				<stop  offset="0" style="stop-color:#85E97E"/>
				<stop  offset="0.3892" style="stop-color:#00C1CA"/>
				<stop  offset="0.4664" style="stop-color:#00ADBF"/>
				<stop  offset="0.5996" style="stop-color:#0091B0"/>
				<stop  offset="0.7334" style="stop-color:#007DA6"/>
				<stop  offset="0.8669" style="stop-color:#00719F"/>
				<stop  offset="1" style="stop-color:#006D9D"/>
			</linearGradient>
			<path class="st8" d="M235.235,69.094h-7.851c-10.165,0-18.434-8.266-18.434-18.428v-7.854c0-10.162,8.269-18.431,18.434-18.431
				h20.755V12.523h5.524v38.143C253.663,60.829,245.399,69.094,235.235,69.094z M227.384,29.909
				c-7.118,0-12.906,5.788-12.906,12.903v7.854c0,7.115,5.788,12.9,12.906,12.9h7.851c7.115,0,12.903-5.785,12.903-12.9V29.909
				H227.384z"/>
		</g>
		<linearGradient id="SVGID_10_" gradientUnits="userSpaceOnUse" x1="99.0586" y1="46.7407" x2="575.8737" y2="46.7407">
			<stop  offset="0" style="stop-color:#85E97E"/>
			<stop  offset="0.3892" style="stop-color:#00C1CA"/>
			<stop  offset="0.4664" style="stop-color:#00ADBF"/>
			<stop  offset="0.5996" style="stop-color:#0091B0"/>
			<stop  offset="0.7334" style="stop-color:#007DA6"/>
			<stop  offset="0.8669" style="stop-color:#00719F"/>
			<stop  offset="1" style="stop-color:#006D9D"/>
		</linearGradient>
		<path class="st9" d="M356.36,24.381l-11.233,35.514c-0.61,1.924-3.003,3.672-5.02,3.672h-2.565c-2.016,0-4.406-1.748-5.02-3.672
			l-11.26-35.514h-5.796l11.791,37.188c1.341,4.218,5.86,7.531,10.285,7.531h2.565c4.428,0,8.95-3.313,10.288-7.531l11.76-37.188
			H356.36z"/>
		<linearGradient id="SVGID_11_" gradientUnits="userSpaceOnUse" x1="99.0588" y1="46.7407" x2="575.8726" y2="46.7407">
			<stop  offset="0" style="stop-color:#85E97E"/>
			<stop  offset="0.3892" style="stop-color:#00C1CA"/>
			<stop  offset="0.4664" style="stop-color:#00ADBF"/>
			<stop  offset="0.5996" style="stop-color:#0091B0"/>
			<stop  offset="0.7334" style="stop-color:#007DA6"/>
			<stop  offset="0.8669" style="stop-color:#00719F"/>
			<stop  offset="1" style="stop-color:#006D9D"/>
		</linearGradient>
		<path class="st10" d="M536.829,51.154h26.635c6.922,0,12.553-5.633,12.553-12.557v-1.658c0-6.926-5.631-12.558-12.553-12.558
			h-19.602c-6.928,0-12.558,5.632-12.558,12.558v8.689v8.922v1.99c0,6.922,5.63,12.56,12.558,12.56h29.391v-5.533h-29.391
			c-3.878,0-7.032-3.151-7.032-7.026v-1.99V51.154z M536.829,36.939c0-3.876,3.154-7.03,7.032-7.03h19.602
			c3.872,0,7.026,3.154,7.026,7.03v1.658c0,3.88-3.154,7.031-7.026,7.031h-26.635V36.939z"/>
		<linearGradient id="SVGID_12_" gradientUnits="userSpaceOnUse" x1="99.0626" y1="46.7407" x2="575.869" y2="46.7407">
			<stop  offset="0" style="stop-color:#85E97E"/>
			<stop  offset="0.3892" style="stop-color:#00C1CA"/>
			<stop  offset="0.4664" style="stop-color:#00ADBF"/>
			<stop  offset="0.5996" style="stop-color:#0091B0"/>
			<stop  offset="0.7334" style="stop-color:#007DA6"/>
			<stop  offset="0.8669" style="stop-color:#00719F"/>
			<stop  offset="1" style="stop-color:#006D9D"/>
		</linearGradient>
		<path class="st11" d="M270.584,51.154h26.637c6.918,0,12.552-5.633,12.552-12.557v-1.658c0-6.926-5.633-12.558-12.552-12.558
			h-19.603c-6.929,0-12.559,5.632-12.559,12.558v8.689v8.922v1.99c0,6.922,5.63,12.56,12.559,12.56h29.387v-5.533h-29.387
			c-3.879,0-7.034-3.151-7.034-7.026v-1.99V51.154z M270.584,36.939c0-3.876,3.154-7.03,7.034-7.03h19.603
			c3.869,0,7.023,3.154,7.023,7.03v1.658c0,3.88-3.154,7.031-7.023,7.031h-26.637V36.939z"/>
		
			<linearGradient id="SVGID_13_" gradientUnits="userSpaceOnUse" x1="221.1655" y1="-3756.2583" x2="697.9765" y2="-3756.2583" gradientTransform="matrix(-1 0 0 -1 936.1509 -3709.5178)">
			<stop  offset="0" style="stop-color:#85E97E"/>
			<stop  offset="0.3892" style="stop-color:#00C1CA"/>
			<stop  offset="0.4664" style="stop-color:#00ADBF"/>
			<stop  offset="0.5996" style="stop-color:#0091B0"/>
			<stop  offset="0.7334" style="stop-color:#007DA6"/>
			<stop  offset="0.8669" style="stop-color:#00719F"/>
			<stop  offset="1" style="stop-color:#006D9D"/>
		</linearGradient>
		<path class="st12" d="M369.582,69.1l11.233-35.515c0.61-1.924,3.003-3.671,5.02-3.671h2.565c2.016,0,4.406,1.747,5.02,3.671
			l11.26,35.515h5.796l-11.791-37.188c-1.341-4.217-5.86-7.53-10.285-7.53h-2.565c-4.427,0-8.95,3.314-10.288,7.53L363.786,69.1
			H369.582z"/>
	</g>
</g>
</svg>
