<?xml version="1.0" encoding="utf-8"?>
<!-- Generator: Adobe Illustrator 22.1.0, SVG Export Plug-In . SVG Version: 6.00 Build 0)  -->
<svg version="1.1" id="Layer_1" xmlns="http://www.w3.org/2000/svg" xmlns:xlink="http://www.w3.org/1999/xlink" x="0px" y="0px"
	 viewBox="0 0 581.959 93.487" style="enable-background:new 0 0 581.959 93.487;" xml:space="preserve">
<style type="text/css">
	.st0{fill:url(#SVGID_1_);}
	.st1{fill:url(#SVGID_2_);}
	.st2{fill:url(#SVGID_3_);}
	.st3{fill:url(#SVGID_4_);}
	.st4{fill:#FFFFFF;}
</style>
<g>
	<g>
		<linearGradient id="SVGID_1_" gradientUnits="userSpaceOnUse" x1="-19.191" y1="67.1882" x2="50.2455" y2="7.0464">
			<stop  offset="0" style="stop-color:#85E97E"/>
			<stop  offset="0.3892" style="stop-color:#00C1CA"/>
			<stop  offset="0.4664" style="stop-color:#00ADBF"/>
			<stop  offset="0.5996" style="stop-color:#0091B0"/>
			<stop  offset="0.7334" style="stop-color:#007DA6"/>
			<stop  offset="0.8669" style="stop-color:#00719F"/>
			<stop  offset="1" style="stop-color:#006D9D"/>
		</linearGradient>
		<path class="st0" d="M8.721,35.563L39.09,8.376v10.923c0,4.617-2.163,6.732-2.215,6.783L6.592,53.189V42.178
			C6.62,38.106,8.321,36.002,8.721,35.563z"/>
	</g>
	<g>
		<linearGradient id="SVGID_2_" gradientUnits="userSpaceOnUse" x1="4.4966" y1="49.8648" x2="81.5889" y2="112.7415">
			<stop  offset="0" style="stop-color:#85E97E"/>
			<stop  offset="0.3892" style="stop-color:#00C1CA"/>
			<stop  offset="0.4664" style="stop-color:#00ADBF"/>
			<stop  offset="0.5996" style="stop-color:#0091B0"/>
			<stop  offset="0.7334" style="stop-color:#007DA6"/>
			<stop  offset="0.8669" style="stop-color:#00719F"/>
			<stop  offset="1" style="stop-color:#006D9D"/>
		</linearGradient>
		<path class="st1" d="M36.957,69.604L6.589,42.416v10.921c0,4.618,2.159,6.734,2.214,6.785l30.284,27.11l0.003-11.016
			C39.064,72.146,37.358,70.039,36.957,69.604z"/>
	</g>
	<g>
		<linearGradient id="SVGID_3_" gradientUnits="userSpaceOnUse" x1="-7.4699" y1="119.7632" x2="105.1588" y2="29.5509">
			<stop  offset="0" style="stop-color:#85E97E"/>
			<stop  offset="0.5508" style="stop-color:#00C1CA"/>
			<stop  offset="0.6076" style="stop-color:#00ADBF"/>
			<stop  offset="0.7055" style="stop-color:#0091B0"/>
			<stop  offset="0.8039" style="stop-color:#007DA6"/>
			<stop  offset="0.9021" style="stop-color:#00719F"/>
			<stop  offset="1" style="stop-color:#006D9D"/>
		</linearGradient>
		<path class="st2" d="M75.233,60.049L44.868,87.237l-0.001-10.923c0-4.62,2.162-6.736,2.212-6.783l30.282-27.11v11.013
			C77.335,57.504,75.634,59.611,75.233,60.049z"/>
	</g>
	<g>
		
			<linearGradient id="SVGID_4_" gradientUnits="userSpaceOnUse" x1="572.0576" y1="-6303.9487" x2="517.3801" y2="-6455.4062" gradientTransform="matrix(-1 0 0 -1 631.1393 -6278.7949)">
			<stop  offset="0" style="stop-color:#85E97E"/>
			<stop  offset="0.3892" style="stop-color:#00C1CA"/>
			<stop  offset="0.4664" style="stop-color:#00ADBF"/>
			<stop  offset="0.5996" style="stop-color:#0091B0"/>
			<stop  offset="0.7334" style="stop-color:#007DA6"/>
			<stop  offset="0.8669" style="stop-color:#00719F"/>
			<stop  offset="1" style="stop-color:#006D9D"/>
		</linearGradient>
		<path class="st3" d="M47,26.009l30.365,27.188V42.273c0-4.618-2.161-6.735-2.214-6.784L44.868,8.379v11.015
			C44.893,23.465,46.599,25.571,47,26.009z"/>
	</g>
</g>
<g>
	<g>
		<path class="st4" d="M179.783,70.163h-7.85c-10.162,0-18.43-8.271-18.43-18.434v-7.854c0-10.159,8.269-18.431,18.43-18.431h7.85
			c10.162,0,18.431,8.272,18.431,18.431v7.854C198.214,61.892,189.945,70.163,179.783,70.163z M171.933,30.972
			c-7.113,0-12.905,5.788-12.905,12.903v7.854c0,7.115,5.791,12.9,12.905,12.9h7.85c7.117,0,12.903-5.785,12.903-12.9v-7.854
			c0-7.115-5.787-12.903-12.903-12.903H171.933z"/>
	</g>
	<g>
		<path class="st4" d="M142.11,70.163h-23.52c-10.165,0-18.434-8.271-18.434-18.434v-7.854c0-10.159,8.269-18.431,18.434-18.431
			h23.52v5.527h-23.52c-7.115,0-12.903,5.788-12.903,12.903v7.854c0,7.115,5.788,12.9,12.903,12.9h23.52V70.163z"/>
	</g>
	<g>
		<path class="st4" d="M520.561,70.163h-23.523c-10.159,0-18.431-8.271-18.431-18.434v-7.854c0-10.159,8.271-18.431,18.431-18.431
			h23.523v5.527h-23.523c-7.112,0-12.905,5.788-12.905,12.903v7.854c0,7.115,5.793,12.9,12.905,12.9h23.523V70.163z"/>
	</g>
	<g>
		<path class="st4" d="M467.218,70.163h-5.525V43.875c0-7.115-5.79-12.903-12.905-12.903h-7.854
			c-7.114,0-12.901,5.788-12.901,12.903v26.288h-5.525V43.875c0-10.159,8.268-18.431,18.427-18.431h7.854
			c10.162,0,18.431,8.272,18.431,18.431V70.163z"/>
	</g>
	<g>
		<path class="st4" d="M235.883,70.157h-7.852c-10.165,0-18.434-8.266-18.434-18.428v-7.854c0-10.162,8.268-18.431,18.434-18.431
			h20.755V13.586h5.524v38.144C254.311,61.892,246.046,70.157,235.883,70.157z M228.031,30.972c-7.118,0-12.906,5.788-12.906,12.903
			v7.854c0,7.115,5.788,12.9,12.906,12.9h7.852c7.115,0,12.903-5.785,12.903-12.9V30.972H228.031z"/>
	</g>
	<path class="st4" d="M357.007,25.444l-11.233,35.514c-0.61,1.924-3.003,3.672-5.02,3.672h-2.565c-2.016,0-4.406-1.748-5.02-3.672
		l-11.26-35.514h-5.796l11.791,37.188c1.341,4.218,5.86,7.531,10.285,7.531h2.565c4.428,0,8.95-3.313,10.288-7.531l11.76-37.188
		H357.007z"/>
	<path class="st4" d="M537.477,52.217h26.635c6.922,0,12.553-5.633,12.553-12.557v-1.658c0-6.926-5.631-12.558-12.553-12.558
		h-19.602c-6.928,0-12.558,5.632-12.558,12.558v8.689v8.922v1.99c0,6.922,5.63,12.56,12.558,12.56h29.391V64.63h-29.391
		c-3.878,0-7.032-3.151-7.032-7.026v-1.99V52.217z M537.477,38.002c0-3.876,3.154-7.03,7.032-7.03h19.602
		c3.872,0,7.026,3.154,7.026,7.03v1.658c0,3.88-3.154,7.031-7.026,7.031h-26.635V38.002z"/>
	<path class="st4" d="M271.231,52.217h26.637c6.918,0,12.552-5.633,12.552-12.557v-1.658c0-6.926-5.633-12.558-12.552-12.558
		h-19.603c-6.929,0-12.56,5.632-12.56,12.558v8.689v8.922v1.99c0,6.922,5.63,12.56,12.56,12.56h29.387V64.63h-29.387
		c-3.879,0-7.034-3.151-7.034-7.026v-1.99V52.217z M271.231,38.002c0-3.876,3.154-7.03,7.034-7.03h19.603
		c3.869,0,7.023,3.154,7.023,7.03v1.658c0,3.88-3.154,7.031-7.023,7.031h-26.637V38.002z"/>
	<path class="st4" d="M370.229,70.163l11.233-35.515c0.61-1.924,3.003-3.671,5.02-3.671h2.565c2.016,0,4.406,1.747,5.02,3.671
		l11.26,35.515h5.796l-11.791-37.188c-1.341-4.217-5.86-7.53-10.285-7.53h-2.565c-4.427,0-8.95,3.313-10.288,7.53l-11.761,37.188
		H370.229z"/>
</g>
</svg>
